<mxfile host="Electron" modified="2024-11-23T19:15:53.709Z" agent="Mozilla/5.0 (Windows NT 10.0; Win64; x64) AppleWebKit/537.36 (KHTML, like Gecko) draw.io/24.4.0 Chrome/120.0.6099.109 Electron/28.1.0 Safari/537.36" etag="46vUt_YKDIjZctqULy8G" version="24.4.0" type="device">
  <diagram name="Página-1" id="0GHZ5A7Jms9QtLhdkr8U">
    <mxGraphModel dx="955" dy="563" grid="1" gridSize="10" guides="1" tooltips="1" connect="1" arrows="1" fold="1" page="1" pageScale="1" pageWidth="1169" pageHeight="827" math="0" shadow="0">
      <root>
        <mxCell id="0" />
        <mxCell id="1" parent="0" />
        <mxCell id="Py_kUXq3wZUquthVJH_P-1" value="&lt;font style=&quot;font-size: 18px;&quot;&gt;&lt;b&gt;POKEMON&lt;/b&gt;&lt;/font&gt;" style="rounded=0;whiteSpace=wrap;html=1;" vertex="1" parent="1">
          <mxGeometry x="342.5" y="205" width="160" height="80" as="geometry" />
        </mxCell>
        <mxCell id="Py_kUXq3wZUquthVJH_P-2" value="&lt;font style=&quot;font-size: 18px;&quot;&gt;&lt;b&gt;RUTA&lt;/b&gt;&lt;/font&gt;" style="rounded=0;whiteSpace=wrap;html=1;" vertex="1" parent="1">
          <mxGeometry x="745" y="210" width="120" height="80" as="geometry" />
        </mxCell>
        <mxCell id="Py_kUXq3wZUquthVJH_P-6" style="edgeStyle=orthogonalEdgeStyle;rounded=0;orthogonalLoop=1;jettySize=auto;html=1;entryX=0;entryY=0.5;entryDx=0;entryDy=0;strokeColor=default;align=center;verticalAlign=middle;fontFamily=Helvetica;fontSize=11;fontColor=default;labelBackgroundColor=default;endArrow=doubleBlock;endFill=1;endSize=12;" edge="1" parent="1" source="Py_kUXq3wZUquthVJH_P-4" target="Py_kUXq3wZUquthVJH_P-2">
          <mxGeometry relative="1" as="geometry" />
        </mxCell>
        <mxCell id="Py_kUXq3wZUquthVJH_P-7" style="edgeStyle=orthogonalEdgeStyle;rounded=0;orthogonalLoop=1;jettySize=auto;html=1;endArrow=doubleBlock;endFill=1;endSize=12;" edge="1" parent="1" source="Py_kUXq3wZUquthVJH_P-4" target="Py_kUXq3wZUquthVJH_P-1">
          <mxGeometry relative="1" as="geometry">
            <Array as="points">
              <mxPoint x="530" y="250.5" />
              <mxPoint x="530" y="250.5" />
            </Array>
          </mxGeometry>
        </mxCell>
        <mxCell id="Py_kUXq3wZUquthVJH_P-4" value="&lt;font style=&quot;font-size: 13px;&quot;&gt;&lt;b&gt;ESTAR&lt;/b&gt;&lt;/font&gt;&lt;div style=&quot;font-size: 13px;&quot;&gt;&lt;font style=&quot;font-size: 13px;&quot;&gt;&lt;b&gt;EN&lt;/b&gt;&lt;/font&gt;&lt;/div&gt;" style="rhombus;whiteSpace=wrap;html=1;verticalAlign=middle;spacingBottom=-3;" vertex="1" parent="1">
          <mxGeometry x="590" y="210" width="80" height="80" as="geometry" />
        </mxCell>
        <mxCell id="Py_kUXq3wZUquthVJH_P-8" value="(N:M)" style="text;html=1;align=center;verticalAlign=middle;whiteSpace=wrap;rounded=0;fontStyle=1;fontSize=15;" vertex="1" parent="1">
          <mxGeometry x="600" y="180" width="60" height="30" as="geometry" />
        </mxCell>
        <mxCell id="Py_kUXq3wZUquthVJH_P-9" value="&lt;span style=&quot;font-weight: normal;&quot;&gt;(0,n)&lt;/span&gt;" style="text;html=1;align=center;verticalAlign=middle;whiteSpace=wrap;rounded=0;fontStyle=1;fontSize=15;" vertex="1" parent="1">
          <mxGeometry x="670" y="220" width="60" height="30" as="geometry" />
        </mxCell>
        <mxCell id="Py_kUXq3wZUquthVJH_P-10" value="&lt;span style=&quot;font-weight: normal;&quot;&gt;(0,n)&lt;/span&gt;" style="text;html=1;align=center;verticalAlign=middle;whiteSpace=wrap;rounded=0;fontStyle=1;fontSize=15;" vertex="1" parent="1">
          <mxGeometry x="520" y="220" width="60" height="30" as="geometry" />
        </mxCell>
        <mxCell id="Py_kUXq3wZUquthVJH_P-24" style="rounded=0;orthogonalLoop=1;jettySize=auto;html=1;endArrow=none;endFill=0;" edge="1" parent="1" source="Py_kUXq3wZUquthVJH_P-11" target="Py_kUXq3wZUquthVJH_P-1">
          <mxGeometry relative="1" as="geometry" />
        </mxCell>
        <mxCell id="Py_kUXq3wZUquthVJH_P-11" value="&lt;i&gt;&lt;u&gt;Nombre&lt;/u&gt;&lt;/i&gt;" style="ellipse;whiteSpace=wrap;html=1;" vertex="1" parent="1">
          <mxGeometry x="360" y="100" width="75" height="50" as="geometry" />
        </mxCell>
        <mxCell id="Py_kUXq3wZUquthVJH_P-23" style="rounded=0;orthogonalLoop=1;jettySize=auto;html=1;endArrow=none;endFill=0;" edge="1" parent="1" source="Py_kUXq3wZUquthVJH_P-12" target="Py_kUXq3wZUquthVJH_P-1">
          <mxGeometry relative="1" as="geometry" />
        </mxCell>
        <mxCell id="Py_kUXq3wZUquthVJH_P-12" value="&lt;b&gt;&lt;u&gt;Id&lt;/u&gt;&lt;/b&gt;" style="ellipse;whiteSpace=wrap;html=1;" vertex="1" parent="1">
          <mxGeometry x="280" y="100" width="75" height="50" as="geometry" />
        </mxCell>
        <mxCell id="Py_kUXq3wZUquthVJH_P-25" style="rounded=0;orthogonalLoop=1;jettySize=auto;html=1;endArrow=none;endFill=0;" edge="1" parent="1" source="Py_kUXq3wZUquthVJH_P-13" target="Py_kUXq3wZUquthVJH_P-1">
          <mxGeometry relative="1" as="geometry" />
        </mxCell>
        <mxCell id="Py_kUXq3wZUquthVJH_P-13" value="Imagen" style="ellipse;whiteSpace=wrap;html=1;" vertex="1" parent="1">
          <mxGeometry x="305" y="335" width="75" height="50" as="geometry" />
        </mxCell>
        <mxCell id="Py_kUXq3wZUquthVJH_P-26" style="rounded=0;orthogonalLoop=1;jettySize=auto;html=1;endArrow=none;endFill=0;" edge="1" parent="1" source="Py_kUXq3wZUquthVJH_P-14" target="Py_kUXq3wZUquthVJH_P-1">
          <mxGeometry relative="1" as="geometry" />
        </mxCell>
        <mxCell id="Py_kUXq3wZUquthVJH_P-14" value="Gif" style="ellipse;whiteSpace=wrap;html=1;" vertex="1" parent="1">
          <mxGeometry x="385" y="335" width="75" height="50" as="geometry" />
        </mxCell>
        <mxCell id="Py_kUXq3wZUquthVJH_P-27" style="rounded=0;orthogonalLoop=1;jettySize=auto;html=1;endArrow=none;endFill=0;" edge="1" parent="1" source="Py_kUXq3wZUquthVJH_P-15" target="Py_kUXq3wZUquthVJH_P-1">
          <mxGeometry relative="1" as="geometry" />
        </mxCell>
        <mxCell id="Py_kUXq3wZUquthVJH_P-15" value="Imagen shiny" style="ellipse;whiteSpace=wrap;html=1;" vertex="1" parent="1">
          <mxGeometry x="465" y="335" width="75" height="50" as="geometry" />
        </mxCell>
        <mxCell id="Py_kUXq3wZUquthVJH_P-22" style="rounded=0;orthogonalLoop=1;jettySize=auto;html=1;endArrow=none;endFill=0;" edge="1" parent="1" source="Py_kUXq3wZUquthVJH_P-16" target="Py_kUXq3wZUquthVJH_P-1">
          <mxGeometry relative="1" as="geometry" />
        </mxCell>
        <mxCell id="Py_kUXq3wZUquthVJH_P-16" value="Tipo 1" style="ellipse;whiteSpace=wrap;html=1;" vertex="1" parent="1">
          <mxGeometry x="440" y="100" width="75" height="50" as="geometry" />
        </mxCell>
        <mxCell id="Py_kUXq3wZUquthVJH_P-21" style="rounded=0;orthogonalLoop=1;jettySize=auto;html=1;endArrow=none;endFill=0;" edge="1" parent="1" source="Py_kUXq3wZUquthVJH_P-18" target="Py_kUXq3wZUquthVJH_P-1">
          <mxGeometry relative="1" as="geometry" />
        </mxCell>
        <mxCell id="Py_kUXq3wZUquthVJH_P-18" value="Tipo 2" style="ellipse;whiteSpace=wrap;html=1;" vertex="1" parent="1">
          <mxGeometry x="520" y="100" width="75" height="50" as="geometry" />
        </mxCell>
        <mxCell id="Py_kUXq3wZUquthVJH_P-20" value="Método de evolución" style="ellipse;whiteSpace=wrap;html=1;" vertex="1" parent="1">
          <mxGeometry x="110" y="271.5" width="75" height="50" as="geometry" />
        </mxCell>
        <mxCell id="Py_kUXq3wZUquthVJH_P-30" value="&lt;b&gt;&lt;u&gt;PK&lt;/u&gt;&lt;/b&gt;" style="text;html=1;align=center;verticalAlign=middle;whiteSpace=wrap;rounded=0;" vertex="1" parent="1">
          <mxGeometry x="287.5" y="70" width="60" height="30" as="geometry" />
        </mxCell>
        <mxCell id="Py_kUXq3wZUquthVJH_P-31" value="&lt;u style=&quot;&quot;&gt;&lt;i style=&quot;&quot;&gt;AK&lt;/i&gt;&lt;/u&gt;" style="text;html=1;align=center;verticalAlign=middle;whiteSpace=wrap;rounded=0;" vertex="1" parent="1">
          <mxGeometry x="367.5" y="70" width="60" height="30" as="geometry" />
        </mxCell>
        <mxCell id="Py_kUXq3wZUquthVJH_P-32" value="&lt;b&gt;&lt;u&gt;Id&lt;/u&gt;&lt;/b&gt;" style="ellipse;whiteSpace=wrap;html=1;" vertex="1" parent="1">
          <mxGeometry x="895" y="160" width="75" height="50" as="geometry" />
        </mxCell>
        <mxCell id="Py_kUXq3wZUquthVJH_P-39" style="edgeStyle=orthogonalEdgeStyle;rounded=0;orthogonalLoop=1;jettySize=auto;html=1;dashed=1;endArrow=none;endFill=0;" edge="1" parent="1" source="Py_kUXq3wZUquthVJH_P-33" target="Py_kUXq3wZUquthVJH_P-38">
          <mxGeometry relative="1" as="geometry">
            <Array as="points">
              <mxPoint x="1020" y="244.5" />
            </Array>
          </mxGeometry>
        </mxCell>
        <mxCell id="Py_kUXq3wZUquthVJH_P-33" value="Nombre" style="ellipse;whiteSpace=wrap;html=1;" vertex="1" parent="1">
          <mxGeometry x="895" y="220" width="75" height="50" as="geometry" />
        </mxCell>
        <mxCell id="Py_kUXq3wZUquthVJH_P-40" style="edgeStyle=orthogonalEdgeStyle;rounded=0;orthogonalLoop=1;jettySize=auto;html=1;entryX=0.5;entryY=1;entryDx=0;entryDy=0;dashed=1;endArrow=none;endFill=0;" edge="1" parent="1" source="Py_kUXq3wZUquthVJH_P-34" target="Py_kUXq3wZUquthVJH_P-38">
          <mxGeometry relative="1" as="geometry">
            <Array as="points">
              <mxPoint x="990" y="305.5" />
              <mxPoint x="1015" y="305.5" />
            </Array>
          </mxGeometry>
        </mxCell>
        <mxCell id="Py_kUXq3wZUquthVJH_P-34" value="Región" style="ellipse;whiteSpace=wrap;html=1;" vertex="1" parent="1">
          <mxGeometry x="895" y="280" width="75" height="50" as="geometry" />
        </mxCell>
        <mxCell id="Py_kUXq3wZUquthVJH_P-36" value="&lt;b&gt;&lt;u&gt;PK&lt;/u&gt;&lt;/b&gt;" style="text;html=1;align=center;verticalAlign=middle;whiteSpace=wrap;rounded=0;" vertex="1" parent="1">
          <mxGeometry x="970" y="170" width="60" height="30" as="geometry" />
        </mxCell>
        <mxCell id="Py_kUXq3wZUquthVJH_P-38" value="&lt;i style=&quot;&quot;&gt;&lt;u&gt;AK &lt;/u&gt;(&lt;/i&gt;nombre+región&lt;i style=&quot;&quot;&gt;)&lt;/i&gt;" style="text;html=1;align=center;verticalAlign=middle;whiteSpace=wrap;rounded=0;" vertex="1" parent="1">
          <mxGeometry x="990" y="257.5" width="60" height="30" as="geometry" />
        </mxCell>
        <mxCell id="Py_kUXq3wZUquthVJH_P-41" style="rounded=0;orthogonalLoop=1;jettySize=auto;html=1;endArrow=none;endFill=0;" edge="1" parent="1" source="Py_kUXq3wZUquthVJH_P-32" target="Py_kUXq3wZUquthVJH_P-2">
          <mxGeometry relative="1" as="geometry">
            <mxPoint x="857.26" y="107" as="sourcePoint" />
            <mxPoint x="845.26" y="170" as="targetPoint" />
          </mxGeometry>
        </mxCell>
        <mxCell id="Py_kUXq3wZUquthVJH_P-42" style="rounded=0;orthogonalLoop=1;jettySize=auto;html=1;endArrow=none;endFill=0;" edge="1" parent="1" source="Py_kUXq3wZUquthVJH_P-33" target="Py_kUXq3wZUquthVJH_P-2">
          <mxGeometry relative="1" as="geometry">
            <mxPoint x="902" y="223.06" as="sourcePoint" />
            <mxPoint x="865" y="242.06" as="targetPoint" />
          </mxGeometry>
        </mxCell>
        <mxCell id="Py_kUXq3wZUquthVJH_P-43" style="rounded=0;orthogonalLoop=1;jettySize=auto;html=1;endArrow=none;endFill=0;" edge="1" parent="1" source="Py_kUXq3wZUquthVJH_P-34" target="Py_kUXq3wZUquthVJH_P-2">
          <mxGeometry relative="1" as="geometry">
            <mxPoint x="882" y="287.21" as="sourcePoint" />
            <mxPoint x="845" y="306.21" as="targetPoint" />
          </mxGeometry>
        </mxCell>
        <mxCell id="Py_kUXq3wZUquthVJH_P-48" style="edgeStyle=orthogonalEdgeStyle;rounded=0;orthogonalLoop=1;jettySize=auto;html=1;entryX=0.005;entryY=0.343;entryDx=0;entryDy=0;entryPerimeter=0;" edge="1" parent="1" target="Py_kUXq3wZUquthVJH_P-1">
          <mxGeometry relative="1" as="geometry">
            <mxPoint x="234.66999999999985" y="232.15999999999985" as="sourcePoint" />
            <mxPoint x="340" y="232.5" as="targetPoint" />
            <Array as="points">
              <mxPoint x="220" y="232.5" />
            </Array>
          </mxGeometry>
        </mxCell>
        <mxCell id="Py_kUXq3wZUquthVJH_P-49" style="edgeStyle=orthogonalEdgeStyle;rounded=0;orthogonalLoop=1;jettySize=auto;html=1;" edge="1" parent="1" source="Py_kUXq3wZUquthVJH_P-46" target="Py_kUXq3wZUquthVJH_P-1">
          <mxGeometry relative="1" as="geometry">
            <mxPoint x="342.4999999999999" y="264.6355172413793" as="targetPoint" />
            <Array as="points">
              <mxPoint x="203" y="282.5" />
            </Array>
          </mxGeometry>
        </mxCell>
        <mxCell id="Py_kUXq3wZUquthVJH_P-46" value="&lt;span style=&quot;font-size: 13px;&quot;&gt;&lt;b&gt;EVOLUCIONAR&lt;/b&gt;&lt;/span&gt;&lt;div&gt;&lt;span style=&quot;font-size: 13px;&quot;&gt;&lt;b&gt;DE&lt;/b&gt;&lt;/span&gt;&lt;/div&gt;" style="rhombus;whiteSpace=wrap;html=1;verticalAlign=middle;spacingBottom=-11;" vertex="1" parent="1">
          <mxGeometry x="165" y="195" width="75" height="75" as="geometry" />
        </mxCell>
        <mxCell id="Py_kUXq3wZUquthVJH_P-50" style="rounded=0;orthogonalLoop=1;jettySize=auto;html=1;endArrow=none;endFill=0;" edge="1" parent="1" source="Py_kUXq3wZUquthVJH_P-46" target="Py_kUXq3wZUquthVJH_P-20">
          <mxGeometry relative="1" as="geometry">
            <mxPoint x="235.5" y="306.5" as="sourcePoint" />
            <mxPoint x="287.5" y="365.5" as="targetPoint" />
          </mxGeometry>
        </mxCell>
        <mxCell id="Py_kUXq3wZUquthVJH_P-51" value="&lt;span style=&quot;font-weight: normal;&quot;&gt;(0,1)&lt;/span&gt;" style="text;html=1;align=center;verticalAlign=middle;whiteSpace=wrap;rounded=0;fontStyle=1;fontSize=15;" vertex="1" parent="1">
          <mxGeometry x="282.5" y="205" width="60" height="30" as="geometry" />
        </mxCell>
        <mxCell id="Py_kUXq3wZUquthVJH_P-52" value="&lt;u style=&quot;&quot;&gt;&lt;i style=&quot;&quot;&gt;roll evolucion&lt;/i&gt;&lt;/u&gt;" style="text;html=1;align=center;verticalAlign=middle;whiteSpace=wrap;rounded=0;" vertex="1" parent="1">
          <mxGeometry x="242.5" y="230" width="100" height="30" as="geometry" />
        </mxCell>
        <mxCell id="Py_kUXq3wZUquthVJH_P-53" value="&lt;u style=&quot;&quot;&gt;&lt;i style=&quot;&quot;&gt;roll pre-evolucion&lt;/i&gt;&lt;/u&gt;" style="text;html=1;align=center;verticalAlign=middle;whiteSpace=wrap;rounded=0;" vertex="1" parent="1">
          <mxGeometry x="240" y="281.5" width="100" height="30" as="geometry" />
        </mxCell>
        <mxCell id="Py_kUXq3wZUquthVJH_P-54" value="&lt;span style=&quot;font-weight: normal;&quot;&gt;(0,n)&lt;/span&gt;" style="text;html=1;align=center;verticalAlign=middle;whiteSpace=wrap;rounded=0;fontStyle=1;fontSize=15;" vertex="1" parent="1">
          <mxGeometry x="282.5" y="255" width="60" height="30" as="geometry" />
        </mxCell>
        <mxCell id="Py_kUXq3wZUquthVJH_P-56" value="(1:N)" style="text;html=1;align=center;verticalAlign=middle;whiteSpace=wrap;rounded=0;fontStyle=1;fontSize=15;" vertex="1" parent="1">
          <mxGeometry x="172.5" y="165" width="60" height="30" as="geometry" />
        </mxCell>
      </root>
    </mxGraphModel>
  </diagram>
</mxfile>
